<?xml version="1.0" encoding="UTF-8" standalone="no"?><!DOCTYPE svg PUBLIC "-//W3C//DTD SVG 1.1//EN" "http://www.w3.org/Graphics/SVG/1.1/DTD/svg11.dtd"><svg width="100%" height="100%" viewBox="0 0 2084 2084" version="1.1" xmlns="http://www.w3.org/2000/svg" xmlns:xlink="http://www.w3.org/1999/xlink" xml:space="preserve" xmlns:serif="http://www.serif.com/" style="fill-rule:evenodd;clip-rule:evenodd;stroke-linejoin:round;stroke-miterlimit:2;"><path d="M1645.833,285.417l0,1512.5c0,100.035 -81.215,181.25 -181.25,181.25l-845.833,0c-100.035,0 -181.25,-81.215 -181.25,-181.25l0,-1512.5c0,-100.035 81.215,-181.25 181.25,-181.25l845.833,0c100.035,0 181.25,81.215 181.25,181.25Zm-479.388,660.746c0,-48.207 -39.138,-87.345 -87.345,-87.345l-74.867,0c-48.207,0 -87.345,39.138 -87.345,87.345l0,75.409c0,48.207 39.138,87.345 87.345,87.345l74.867,0c48.207,0 87.345,-39.138 87.345,-87.345l0,-75.409Zm357.034,-579.321c0,-74.738 -60.678,-135.417 -135.417,-135.417l-687.5,0c-74.738,0 -135.417,60.678 -135.417,135.417l0,270.833c0,74.738 60.678,135.417 135.417,135.417l687.5,0c74.738,0 135.417,-60.678 135.417,-135.417l0,-270.833Zm-708.775,579.321c0,-48.207 -39.138,-87.345 -87.345,-87.345l-74.867,0c-48.207,0 -87.345,39.138 -87.345,87.345l0,75.409c0,48.207 39.138,87.345 87.345,87.345l74.867,0c48.207,0 87.345,-39.138 87.345,-87.345l0,-75.409Zm-5.294,353.027c0,-48.207 -39.138,-87.345 -87.345,-87.345l-74.867,0c-48.207,0 -87.345,39.138 -87.345,87.345l0,75.409c0,48.207 39.138,87.345 87.345,87.345l74.867,0c48.207,0 87.345,-39.138 87.345,-87.345l0,-75.409Zm357.034,355.206c0,-48.207 -39.138,-87.345 -87.345,-87.345l-74.867,0c-48.207,0 -87.345,39.138 -87.345,87.345l0,75.409c0,48.207 39.138,87.345 87.345,87.345l74.867,0c48.207,0 87.345,-39.138 87.345,-87.345l0,-75.409Zm351.741,-355.206c0,-48.207 -39.138,-87.345 -87.345,-87.345l-74.867,0c-48.207,0 -87.345,39.138 -87.345,87.345l0,75.409c0,48.207 39.138,87.345 87.345,87.345l74.867,0c48.207,0 87.345,-39.138 87.345,-87.345l0,-75.409Zm0,-353.027c0,-48.207 -39.138,-87.345 -87.345,-87.345l-74.867,0c-48.207,0 -87.345,39.138 -87.345,87.345l0,75.409c0,48.207 39.138,87.345 87.345,87.345l74.867,0c48.207,0 87.345,-39.138 87.345,-87.345l0,-75.409Zm-708.775,707.877c0,-48.011 -38.979,-86.989 -86.989,-86.989l-75.579,0c-48.011,0 -86.989,38.979 -86.989,86.989l0,74.562c0,48.011 38.979,86.989 86.989,86.989l75.579,0c48.011,0 86.989,-38.979 86.989,-86.989l0,-74.562Zm708.775,0.356c0,-48.207 -39.138,-87.345 -87.345,-87.345l-74.867,0c-48.207,0 -87.345,39.138 -87.345,87.345l0,75.409c0,48.207 39.138,87.345 87.345,87.345l74.867,0c48.207,0 87.345,-39.138 87.345,-87.345l0,-75.409Zm-351.741,-355.206c0,-48.207 -39.138,-87.345 -87.345,-87.345l-74.867,0c-48.207,0 -87.345,39.138 -87.345,87.345l0,75.409c0,48.207 39.138,87.345 87.345,87.345l74.867,0c48.207,0 87.345,-39.138 87.345,-87.345l0,-75.409Z" style="fill:#eb5041;"/></svg>