<?xml version="1.0" encoding="UTF-8" standalone="no"?><!DOCTYPE svg PUBLIC "-//W3C//DTD SVG 1.1//EN" "http://www.w3.org/Graphics/SVG/1.1/DTD/svg11.dtd"><svg width="100%" height="100%" viewBox="0 0 2084 2084" version="1.1" xmlns="http://www.w3.org/2000/svg" xmlns:xlink="http://www.w3.org/1999/xlink" xml:space="preserve" xmlns:serif="http://www.serif.com/" style="fill-rule:evenodd;clip-rule:evenodd;stroke-linejoin:round;stroke-miterlimit:2;"><g><circle cx="215.757" cy="528.538" r="90.552" style="fill:#eb5041;"/><path d="M1958.128,528.538c0,33.318 -27.05,60.368 -60.368,60.368l-1388.465,0c-33.318,0 -60.368,-27.05 -60.368,-60.368c0,-33.318 27.05,-60.368 60.368,-60.368l1388.465,0c33.318,0 60.368,27.05 60.368,60.368Z" style="fill:#eb5041;"/></g><g><circle cx="215.757" cy="1041.667" r="90.552" style="fill:#eb5041;"/><path d="M1958.128,1041.667c0,33.318 -27.05,60.368 -60.368,60.368l-1388.465,0c-33.318,0 -60.368,-27.05 -60.368,-60.368c0,-33.318 27.05,-60.368 60.368,-60.368l1388.465,0c33.318,0 60.368,27.05 60.368,60.368Z" style="fill:#eb5041;"/></g><g><circle cx="215.757" cy="1554.795" r="90.552" style="fill:#eb5041;"/><path d="M1958.128,1554.795c0,33.318 -27.05,60.368 -60.368,60.368l-1388.465,0c-33.318,0 -60.368,-27.05 -60.368,-60.368c0,-33.318 27.05,-60.368 60.368,-60.368l1388.465,0c33.318,0 60.368,27.05 60.368,60.368Z" style="fill:#eb5041;"/></g></svg>